HIERARCHY
ROOT SimulationBone
{
	OFFSET 0.000000 0.000000 0.000000
	CHANNELS 6 Xposition Yposition Zposition Zrotation Yrotation Xrotation 
	JOINT Hips
	{
		OFFSET 0.000000 0.000000 0.000000
		CHANNELS 6 Xposition Yposition Zposition Zrotation Yrotation Xrotation 
		JOINT LeftUpLeg
		{
			OFFSET 0.103461 1.857828 10.548504
			CHANNELS 3 Zrotation Yrotation Xrotation
			JOINT LeftLeg
			{
				OFFSET 43.500008 -0.000031 0.000006
				CHANNELS 3 Zrotation Yrotation Xrotation
				JOINT LeftFoot
				{
					OFFSET 42.372200 0.000019 -0.000010
					CHANNELS 3 Zrotation Yrotation Xrotation
					JOINT LeftToe
					{
						OFFSET 17.299999 -0.000000 0.000002
						CHANNELS 3 Zrotation Yrotation Xrotation
						End Site
						{
							OFFSET 0.000000 0.000000 0.000000
						}
					}
				}
			}
		}
		JOINT RightUpLeg
		{
			OFFSET 0.103457 1.857829 -10.548504
			CHANNELS 3 Zrotation Yrotation Xrotation
			JOINT RightLeg
			{
				OFFSET 43.500046 -0.000019 0.000011
				CHANNELS 3 Zrotation Yrotation Xrotation
				JOINT RightFoot
				{
					OFFSET 42.372261 0.000000 0.000008
					CHANNELS 3 Zrotation Yrotation Xrotation
					JOINT RightToe
					{
						OFFSET 17.299990 -0.000006 0.000008
						CHANNELS 3 Zrotation Yrotation Xrotation
						End Site
						{
							OFFSET 0.000000 0.000000 0.000000
						}
					}
				}
			}
		}
		JOINT Spine
		{
			OFFSET 6.901969 -2.603727 -0.000006
			CHANNELS 3 Zrotation Yrotation Xrotation
			JOINT Spine1
			{
				OFFSET 12.588100 -0.000002 0.000002
				CHANNELS 3 Zrotation Yrotation Xrotation
				JOINT Spine2
				{
					OFFSET 12.343195 0.000004 0.000008
					CHANNELS 3 Zrotation Yrotation Xrotation
					JOINT Neck
					{
						OFFSET 25.832905 -0.000008 -0.000002
						CHANNELS 3 Zrotation Yrotation Xrotation
						JOINT Head
						{
							OFFSET 11.766608 0.000010 -0.000008
							CHANNELS 3 Zrotation Yrotation Xrotation
							End Site
							{
								OFFSET 0.000000 0.000000 0.000000
							}
						}
					}
					JOINT LeftShoulder
					{
						OFFSET 19.745903 -1.480370 6.000106
						CHANNELS 3 Zrotation Yrotation Xrotation
						JOINT LeftArm
						{
							OFFSET 11.284119 -0.000006 -0.000014
							CHANNELS 3 Zrotation Yrotation Xrotation
							JOINT LeftForeArm
							{
								OFFSET 33.000050 0.000004 0.000026
								CHANNELS 3 Zrotation Yrotation Xrotation
								JOINT LeftHand
								{
									OFFSET 25.200020 0.000017 0.000004
									CHANNELS 3 Zrotation Yrotation Xrotation
									End Site
									{
										OFFSET 0.000000 0.000000 0.000000
									}
								}
							}
						}
					}
					JOINT RightShoulder
					{
						OFFSET 19.746099 -1.480375 -6.000082
						CHANNELS 3 Zrotation Yrotation Xrotation
						JOINT RightArm
						{
							OFFSET 11.284140 -0.000015 -0.000008
							CHANNELS 3 Zrotation Yrotation Xrotation
							JOINT RightForeArm
							{
								OFFSET 33.000084 0.000016 0.000002
								CHANNELS 3 Zrotation Yrotation Xrotation
								JOINT RightHand
								{
									OFFSET 25.199783 0.000142 0.000437
									CHANNELS 3 Zrotation Yrotation Xrotation
									End Site
									{
										OFFSET 0.000000 0.000000 0.000000
									}
								}
							}
						}
					}
				}
			}
		}
	}
}
MOTION
Frames: 9
Frame Time: 0.016667
121.274284 0.000000 -21.594016 0.000000 167.636100 0.000000 0.951992 91.354797 -0.215617 97.038927 0.270133 -179.721757 165.358866 -9.436402 -177.282491 -50.391994 -0.771981 -2.453983 77.442466 0.098111 -6.094496 21.454550 0.003091 0.000002 -175.548101 0.540802 174.584703 -17.229154 3.359794 3.602535 89.014979 -2.148402 2.399346 21.454558 -0.003109 -0.000017 8.910466 0.304922 -0.095464 7.807742 0.615519 -0.170171 7.489643 0.614616 -0.173882 10.243892 4.628680 5.371734 -6.235402 -9.130916 8.259231 -158.806528 -73.707620 -23.164409 -25.627565 59.234424 28.060171 -27.456070 -15.468720 1.212796 4.056527 -23.416532 -4.815383 174.317629 69.527109 -4.550719 -22.731053 -48.460659 -31.883858 -33.765668 18.315687 -1.547685 8.107733 5.729900 -6.581484 
121.150908 0.000000 -21.961198 0.000000 167.687493 0.000000 0.978224 91.378727 -0.248749 97.152176 0.066682 -179.908971 164.314901 -8.816941 -177.936573 -51.877965 -1.020248 -2.589562 77.746590 0.244074 -5.994486 21.454547 0.003091 0.000001 -175.287514 0.593965 174.699142 -17.216128 3.370688 3.474239 89.108304 -2.110361 2.108956 21.454557 -0.003108 -0.000017 8.942430 0.280723 -0.042511 7.871952 0.563625 -0.065864 7.553830 0.563352 -0.069255 10.347269 4.536458 5.177284 -6.092998 -8.821267 7.955371 -158.953821 -73.690772 -23.013599 -25.809952 59.438735 28.123126 -28.392691 -15.824149 1.251749 4.033964 -24.220565 -4.329102 174.021879 69.469332 -4.857559 -22.730707 -48.111591 -32.045471 -33.606539 18.169523 -1.534733 8.346836 5.654097 -5.570226 
120.977739 0.000000 -22.322257 0.000000 167.718884 0.000000 0.989101 91.390404 -0.291805 97.208689 -0.144513 179.922141 163.386253 -8.158097 -178.913281 -52.717667 -1.092008 -2.133740 77.798142 -0.094724 -6.081852 21.454550 0.003091 0.000001 -175.116269 0.664306 174.878948 -17.313647 3.358773 3.301699 89.262566 -2.041735 1.817160 21.454558 -0.003108 -0.000017 8.964551 0.246694 0.010966 7.916400 0.492004 0.038752 7.598278 0.492365 0.035791 10.406435 4.602500 4.995150 -6.050365 -8.672731 7.727679 -159.028468 -73.855617 -22.934412 -25.847943 59.714327 28.158610 -29.438210 -16.092725 1.288913 3.620767 -24.806730 -3.339850 173.750505 69.501045 -5.136590 -22.783149 -47.979489 -32.079574 -33.301170 18.064385 -1.521143 8.423788 5.488188 -4.791731 
120.756573 0.000000 -22.677189 0.000000 167.730947 0.000000 0.989050 91.385050 -0.340576 97.225353 -0.346915 179.780981 162.592994 -7.482755 -179.958641 -52.946336 -1.167617 -1.379163 77.719057 -0.678764 -6.270493 21.454553 0.003092 0.000001 -175.004876 0.730645 175.117389 -17.504059 3.324326 3.098397 89.480899 -1.948768 1.542328 21.454558 -0.003108 -0.000018 8.978764 0.210147 0.061582 7.944947 0.415521 0.137424 7.626838 0.416481 0.134920 10.412784 4.730923 4.833357 -6.051840 -8.623441 7.556483 -159.060773 -74.099279 -22.897434 -25.772376 59.981235 28.245205 -30.526004 -16.307391 1.324120 2.957228 -25.248011 -1.993626 173.488302 69.586279 -5.404507 -22.829750 -47.988656 -32.021704 -32.948732 17.977864 -1.507811 8.411496 5.322067 -4.221743 
120.489210 0.000000 -23.025989 0.000000 167.724352 0.000000 0.982480 91.357887 -0.390826 97.218913 -0.523796 179.676847 161.961790 -6.805205 179.181912 -52.601618 -1.441828 -0.614910 77.630385 -1.268758 -6.474195 21.454553 0.003092 -0.000000 -174.924027 0.771807 175.407700 -17.769688 3.267655 2.877906 89.766573 -1.837847 1.302869 21.454558 -0.003108 -0.000018 8.987024 0.178392 0.105955 7.961526 0.349031 0.223916 7.643433 0.350514 0.221808 10.358345 4.825843 4.699690 -6.042670 -8.610996 7.422770 -159.079475 -74.318820 -22.874814 -25.613815 60.159368 28.461548 -31.589600 -16.501143 1.357746 2.187550 -25.620814 -0.440833 173.221998 69.688970 -5.676077 -22.813066 -48.063449 -31.906493 -32.648358 17.887610 -1.495469 8.384818 5.242889 -3.836063 
120.177448 0.000000 -23.368653 0.000000 167.699768 0.000000 0.970843 91.306248 -0.439173 97.199290 -0.661115 179.616980 161.507659 -6.128438 178.688738 -51.725083 -2.034149 -0.083042 77.624906 -1.669339 -6.629370 21.454547 0.003091 -0.000001 -174.851616 0.771213 175.739929 -18.088195 3.192569 2.653482 90.115321 -1.716785 1.107677 21.454557 -0.003108 -0.000017 8.990263 0.157725 0.141498 7.968051 0.305298 0.293504 7.649967 0.307200 0.291659 10.249133 4.805879 4.600940 -5.993648 -8.574731 7.309654 -159.117208 -74.434372 -22.834356 -25.406114 60.185015 28.861603 -32.571370 -16.690732 1.390166 1.435256 -25.991520 1.177031 172.951510 69.778289 -5.952336 -22.693010 -48.139460 -31.777624 -32.472130 17.781316 -1.484845 8.404590 5.313288 -3.605809 
119.823085 0.000000 -23.705176 0.000000 167.657860 0.000000 0.943776 91.235909 -0.485703 97.149368 -0.756064 179.600837 161.175840 -5.432693 178.443815 -50.360585 -2.757762 0.179056 77.692923 -1.863954 -6.753276 21.454543 0.003091 -0.000001 -174.793461 0.731201 176.091347 -18.418660 3.116541 2.436798 90.492185 -1.598268 0.927409 21.454557 -0.003108 -0.000017 8.985291 0.150390 0.168803 7.958166 0.288785 0.347529 7.640083 0.291012 0.345785 10.145344 4.647612 4.539511 -5.976156 -8.462072 7.208150 -159.219658 -74.458415 -22.729008 -25.190162 60.061185 29.407389 -33.447855 -16.827838 1.418326 0.744536 -26.359740 2.754059 172.724419 69.844767 -6.184512 -22.499854 -48.196290 -31.713537 -32.383971 17.686703 -1.476876 8.472985 5.503092 -3.481950 
119.427919 0.000000 -24.035555 0.000000 167.599289 0.000000 0.892237 91.155372 -0.530681 97.051479 -0.812917 179.628603 160.915981 -4.697019 178.282994 -48.534681 -3.384896 0.197662 77.800578 -1.882275 -6.868719 21.454545 0.003091 -0.000001 -174.752005 0.661094 176.432401 -18.712926 3.058207 2.242732 90.858621 -1.497028 0.732788 21.454556 -0.003109 -0.000017 8.969187 0.155816 0.188917 7.926041 0.298296 0.388042 7.607953 0.300769 0.386240 10.097104 4.374709 4.514660 -6.060644 -8.258089 7.119123 -159.416495 -74.435763 -22.527618 -25.007717 59.819458 30.043001 -34.203414 -16.870034 1.438170 0.148111 -26.693331 4.191342 172.580384 69.888393 -6.331712 -22.271482 -48.232098 -31.774637 -32.334835 17.633104 -1.472382 8.567023 5.760999 -3.418839 
118.993749 0.000000 -24.359784 0.000000 167.524716 0.000000 0.824296 91.075607 -0.571786 96.912372 -0.853202 179.711015 160.778760 -3.902893 178.160335 -46.217051 -3.844894 0.026573 77.916652 -1.759246 -6.943800 21.454551 0.003092 -0.000001 -174.688426 0.578400 176.718837 -18.911938 3.026170 2.101536 91.192710 -1.431852 0.533876 21.454557 -0.003109 -0.000018 8.944269 0.166209 0.201544 7.876283 0.318282 0.413911 7.558193 0.320914 0.411988 10.060921 4.140699 4.518329 -6.212828 -8.089256 7.076033 -159.664113 -74.448614 -22.273621 -24.893363 59.537691 30.735697 -34.821762 -16.863245 1.451466 -0.293928 -26.895539 5.386321 172.477603 69.924646 -6.436520 -22.005480 -48.276988 -31.915236 -32.331905 17.616378 -1.471244 8.623697 6.043035 -3.405124 
